<?xml version="1.0" encoding="utf-8"?>
<!-- Generator: Adobe Illustrator 16.0.3, SVG Export Plug-In . SVG Version: 6.00 Build 0)  -->
<!DOCTYPE svg PUBLIC "-//W3C//DTD SVG 1.1//EN" "http://www.w3.org/Graphics/SVG/1.1/DTD/svg11.dtd">
<svg version="1.1" id="Layer_1" xmlns="http://www.w3.org/2000/svg" xmlns:xlink="http://www.w3.org/1999/xlink" x="0px" y="0px"
	 width="315px" height="312px" viewBox="0 0 315 312" enable-background="new 0 0 315 312" xml:space="preserve">
<g>
	<path fill="#FFFFFF" d="M312.89,167.562c-8.965-5.738-17.874-11.576-26.719-17.502c-1.069-0.726-2.135-2.093-2.366-3.318
		c-0.853-4.505-1.498-9.062-1.912-13.629c-0.117-1.35,0.399-3.104,1.269-4.142c6.802-8.196,13.726-16.295,20.705-24.344
		c1.26-1.453,1.541-2.596,0.664-4.387c-2.573-5.255-5.034-10.572-7.322-15.965c-0.806-1.896-1.887-2.318-3.771-2.312
		c-10.652,0.02-21.311-0.031-31.957-0.238c-1.332-0.021-2.977-0.811-3.902-1.783c-3.104-3.249-6.055-6.659-8.816-10.199
		c-0.815-1.048-1.281-2.8-1.121-4.132c1.301-10.562,2.758-21.107,4.236-31.65c0.26-1.853-0.117-3.015-1.857-4.06
		c-4.93-2.975-9.785-6.093-14.535-9.352c-1.756-1.209-2.954-1.041-4.657,0.056c-8.866,5.719-17.851,11.252-26.718,16.962
		c-1.646,1.062-3.086,1.218-4.883,0.646c-3.994-1.271-8.015-2.506-12.078-3.525c-2.022-0.508-3.084-1.587-3.928-3.438
		c-4.375-9.586-8.943-19.092-13.301-28.688c-0.818-1.812-1.803-2.381-3.738-2.331c-5.865,0.13-11.731,0.13-17.593,0
		c-1.887-0.044-2.716,0.665-3.463,2.299c-4.391,9.58-8.979,19.072-13.3,28.684c-0.917,2.034-2.152,3.012-4.185,3.539
		c-3.677,0.949-7.394,1.877-10.95,3.203c-2.591,0.969-4.504,0.473-6.736-0.982c-8.591-5.592-17.35-10.936-25.968-16.5
		c-1.666-1.073-2.803-1.023-4.418,0.068c-4.689,3.172-9.458,6.239-14.299,9.174c-1.843,1.121-2.453,2.312-2.135,4.485
		c1.568,10.626,3.021,21.269,4.375,31.927c0.139,1.084-0.312,2.521-1.005,3.377c-2.95,3.643-6.012,7.209-9.233,10.615
		c-0.861,0.91-2.464,1.572-3.728,1.614c-5.368,0.176-11.167,0.074-16.167,0.074c0,0.066,0,0.134,0,0.195
		c-5,0-10.713,0.077-16.085-0.045c-1.851-0.037-2.761,0.602-3.49,2.286c-2.319,5.377-4.707,10.724-7.275,15.983
		c-0.867,1.78-0.673,2.892,0.599,4.358c6.919,7.976,13.675,16.086,20.607,24.049c1.356,1.559,1.781,2.996,1.443,4.996
		c-0.746,4.431-1.162,8.914-1.986,13.324c-0.212,1.139-1.259,2.385-2.269,3.059c-8.855,5.914-17.763,11.752-26.722,17.502
		c-1.604,1.034-2.265,2.06-1.946,4.01c0.954,5.883,1.771,11.783,2.531,17.695c0.223,1.713,1.057,2.416,2.663,2.893
		c10.296,3.04,20.542,6.229,30.836,9.265c1.757,0.519,2.78,1.366,3.49,3.076c1.637,3.967,3.394,7.896,5.334,11.717
		c0.905,1.782,0.761,3.211-0.018,4.92c-4.358,9.604-8.568,19.271-12.976,28.843c-0.88,1.903-0.678,3.106,0.7,4.621
		c3.813,4.192,7.578,8.441,11.125,12.864c1.419,1.774,2.694,1.922,4.707,1.327c10.206-3.002,20.438-5.9,30.699-8.688
		c1.208-0.322,2.896-0.059,3.989,0.574c3.883,2.254,7.682,4.672,11.338,7.277c1.099,0.783,2.099,2.311,2.322,3.635
		c1.746,10.602,3.318,21.227,4.876,31.852c0.263,1.758,0.946,2.648,2.763,3.137c5.653,1.514,11.271,3.182,16.845,4.961
		c1.882,0.6,2.972,0.188,4.244-1.281c6.968-8.057,14.096-15.974,21.063-24.035c1.291-1.494,2.625-2.021,4.535-1.975
		c4.194,0.12,8.402,0.131,12.606-0.003c1.826-0.056,3.044,0.513,4.251,1.903c7.043,8.121,14.217,16.133,21.258,24.252
		c1.205,1.387,2.263,1.719,4.015,1.166c5.678-1.789,11.396-3.469,17.131-5.051c1.675-0.461,2.317-1.354,2.562-2.996
		c1.56-10.723,3.142-21.446,4.887-32.143c0.205-1.24,1.214-2.646,2.261-3.386c3.671-2.587,7.451-5.036,11.347-7.263
		c1.166-0.672,2.965-0.914,4.264-0.562c10.354,2.805,20.677,5.762,30.979,8.762c1.707,0.498,2.782,0.26,3.972-1.197
		c3.656-4.449,7.453-8.803,11.316-13.078c1.341-1.492,1.66-2.715,0.773-4.633c-3.902-8.418-7.395-17.02-11.521-25.314
		c-2.095-4.214-2.552-7.812-0.003-11.915c1.63-2.633,2.515-5.722,4.051-8.429c0.675-1.189,1.979-2.41,3.253-2.812
		c10.229-3.252,20.512-6.332,30.803-9.384c1.562-0.461,2.5-1.069,2.729-2.842c0.736-5.912,1.537-11.813,2.494-17.692
		C315.056,169.648,314.537,168.617,312.89,167.562z"/>
</g>
<g>
	<path fill="#00263E" d="M61.684,182.504c-6.775-7.365-10.161-16.341-10.161-26.923c0-10.614,3.448-19.448,10.345-26.502
		c6.896-7.053,15.475-10.58,25.812-10.58c3.526,0,7.696,0.717,11.696,2.146v21.268c-3-1.57-6.371-2.356-9.13-2.356
		c-4.994,0-9.052,1.554-12.212,4.66c-3.161,3.107-4.732,7.144-4.732,12.1c0,5.064,1.473,9.078,4.406,12.049
		c2.934,2.968,6.897,4.45,11.893,4.45c3.177,0,4.767-0.771,4.767-2.621c0-1.397-1.046-1.944-3.142-1.944h-4.85v-17h20.039
		c4.365,6,6.547,11.351,6.547,17.354c0,6.984-2.559,12.968-7.673,17.715c-5.116,4.75-11.41,7.183-18.882,7.183
		C76.698,193.499,68.456,189.873,61.684,182.504z"/>
	<path fill="#00263E" d="M119.374,119.999h27.361c12.15,0,21.667,2.773,28.544,8.292c8.172,6.6,12.258,15.563,12.258,26.877
		c0,10.826-3.492,19.664-10.477,26.509c-6.983,6.843-16.164,10.269-27.164,10.269c-1.292,0-3.525-0.066-6.525-0.207v-20.736h3.78
		c12.395,0,18.594-5.1,18.594-15.473c0-9.739-6.094-14.527-18.28-14.527h-7.094v51h-21L119.374,119.999L119.374,119.999z"/>
	<path fill="#00263E" d="M253.001,181.682c-6.983,6.844-16.132,10.267-27.132,10.267c-1.292,0-3.495-0.069-6.495-0.209v-20.737
		h3.719c12.396,0,18.597-5.102,18.597-15.472c0-9.74-6.097-14.528-18.279-14.528h-7.034v51h-21v-72h27.301
		c12.15,0,21.666,2.774,28.546,8.292c8.17,6.6,12.256,15.564,12.256,26.877C263.479,165.995,259.984,174.836,253.001,181.682z"/>
</g>
</svg>
